<svg width="76" height="77" viewBox="0 0 76 77" fill="none" xmlns="http://www.w3.org/2000/svg">
<path d="M30.5555 71.1864C32.1176 69.6243 32.1176 67.0916 30.5555 65.5296C28.9934 63.9675 26.4608 63.9675 24.8987 65.5296L30.5555 71.1864ZM44.3987 51.5296C42.8366 53.0916 42.8366 55.6243 44.3987 57.1864C45.9608 58.7485 48.4934 58.7485 50.0555 57.1864L44.3987 51.5296ZM24.8987 65.5296C25.0477 65.3805 25.0075 65.462 24.5397 65.7207C24.141 65.9411 23.5813 66.2082 22.8822 66.4878C21.4813 67.0481 19.6898 67.5917 17.8012 67.9155C13.7037 68.6179 10.5992 68.0732 9.05552 66.5295L3.39867 72.1864C7.85496 76.6427 14.5005 76.598 19.1529 75.8005C21.6394 75.3742 23.9728 74.6678 25.8533 73.9156C26.7947 73.5391 27.6648 73.1342 28.4106 72.7218C29.0873 72.3477 29.9065 71.8354 30.5555 71.1864L24.8987 65.5296ZM9.05552 66.5295C8.56689 66.0409 7.98226 64.958 8.0004 62.7264C8.01844 60.5079 8.64606 57.5397 10.1182 53.9316C13.0545 46.7348 19.0753 37.6666 28.5555 28.1864L22.8987 22.5296C12.8789 32.5494 6.14972 42.4812 2.71099 50.9094C0.995627 55.1137 0.0295036 59.1143 0.000664949 62.6614C-0.0280676 66.1955 0.887301 69.675 3.39867 72.1864L9.05552 66.5295ZM28.5555 28.1864C37.9762 18.7657 46.9973 13.2532 54.0389 10.677C57.5713 9.38465 60.4742 8.87867 62.607 8.8969C64.8322 8.91592 65.6967 9.48444 65.8987 9.68641L71.5555 4.02956C69.2575 1.73152 65.9345 0.925046 62.6753 0.897189C59.3237 0.868543 55.4454 1.64381 51.2903 3.16399C42.9568 6.2128 32.978 12.4503 22.8987 22.5296L28.5555 28.1864ZM65.8987 9.68641C66.7383 10.526 68.2835 14.0186 65.6378 21.603C63.0895 28.9081 56.8914 39.0369 44.3987 51.5296L50.0555 57.1864C63.0628 44.1791 70.1147 33.0579 73.1914 24.238C76.1707 15.6974 75.7159 8.18997 71.5555 4.02956L65.8987 9.68641Z" fill="url(#paint0_linear_8_10)"/>
<path d="M27.2271 8.85797C27.2271 8.85797 13.7271 -0.142012 7.2271 6.35797C0.727113 12.8579 6.22709 31.858 26.2271 51.858C46.2271 71.858 63.7271 75.3579 68.7271 70.358C73.7271 65.358 71.2271 53.358 68.7271 50.858" stroke="url(#paint1_linear_8_10)" stroke-width="8" stroke-linecap="round" stroke-linejoin="round"/>
<circle cx="38.2271" cy="38.858" r="7" fill="url(#paint2_linear_8_10)"/>
<defs>
<linearGradient id="paint0_linear_8_10" x1="37.5561" y1="4.89642" x2="37.5561" y2="72.2158" gradientUnits="userSpaceOnUse">
<stop stop-color="#FFBF43"/>
<stop offset="1" stop-color="#F1683D"/>
</linearGradient>
<linearGradient id="paint1_linear_8_10" x1="15" y1="12" x2="60" y2="69.5" gradientUnits="userSpaceOnUse">
<stop stop-color="#FFE072"/>
<stop offset="1" stop-color="#F17F16"/>
</linearGradient>
<linearGradient id="paint2_linear_8_10" x1="34" y1="32" x2="42" y2="46" gradientUnits="userSpaceOnUse">
<stop stop-color="#FFB932"/>
<stop offset="1" stop-color="#F1744C"/>
</linearGradient>
</defs>
</svg>
