<svg xmlns="http://www.w3.org/2000/svg" width="512" height="512"><path d="M508 233a34 34 0 0 0-56-7c-41-32-83-100-59-180-43-5-89 8-130 32-10-22-16-45-16-77-38 20-69 58-88 102-22-12-40-28-59-55-20 38-23 86-15 132-24 3-48 0-79-11 6 43 32 85 66 118-19 17-40 28-72 37 30 31 74 51 120 59-6 24-17 45-38 70 43 9 91-1 133-21 9 23 12 47 10 79 60-26 119-102 129-193 50-8 88-24 113-37 28 9 55-20 41-48zm-159-3a34 34 0 1 0-7-63c0-25 6-51 28-87-5 67 30 131 74 162-2 10 1 20 7 28-28 14-61 25-97 32 0-24-2-48-5-72z"/></svg>
