<svg xmlns="http://www.w3.org/2000/svg" width="512" height="512"><path d="M0 0v512h512V0H0zm267 438c-8 15-22 25-38 30-26 6-51 3-69-8-12-8-22-19-28-32l39-24c5 7 12 19 20 22s27 5 34-10c4-7 3-31 3-58V235h48v131c0 27 2 52-9 72zm199-14c-15 58-110 59-147 22-7-9-12-14-17-24l39-23c10 17 20 25 37 29 24 3 47-5 42-30-5-21-48-26-77-47a67 67 0 0 1-12-96c8-10 22-18 36-21l15-2c29-1 47 7 60 22 4 3 7 7 13 16l-38 24c-4-10-12-16-20-19-13-4-30 0-33 14-1 4-1 8 1 15 5 12 23 17 38 24 46 18 61 38 64 61 4 20-1 34-1 35z"/></svg>
