<svg xmlns="http://www.w3.org/2000/svg" width="512" height="512"><path d="M108 341c-36 136 35 194 148 87 107 104 187 58 149-86 157-45 127-139 0-171 38-152-49-186-149-87-99-99-187-67-148 86-138 39-150 126 0 171zm176 19c-9 12-18 23-28 33l-28-33h56zm-103-27-44-8 15-42c8 17 18 33 29 50zm-44-146 44-8-29 50-15-42zm165-11c17 26 33 52 46 80-12 26-28 52-46 80h-91c-18-26-33-53-47-80 13-27 29-53 47-80 29-2 59-2 91 0zm59 53c-9-18-19-35-29-50l44 7c-4 14-9 29-15 43zm0 54 15 42-44 7c11-16 20-32 29-49zm-89 127c15-15 29-33 43-52 24-2 46-6 67-11 30 128-24 147-110 63zm127-91c-7-21-15-42-25-63 10-22 18-43 25-64 56 17 90 41 89 64-1 33-56 53-89 63zm-16-155c-21-4-44-8-67-10-14-20-29-37-43-53 80-78 142-71 110 63zm-99-12h-56l28-34 28 34zm-44-51c-14 16-28 33-42 53-24 2-47 5-68 10-29-119 19-151 110-63zM114 319c-56-16-89-41-90-63 0-25 40-49 90-64 7 21 15 42 25 64-10 21-19 43-25 63zm16 28c21 5 44 8 68 11 13 19 28 37 42 52-89 84-139 63-110-63zm103-51a47 47 0 1 1 47-81 47 47 0 0 1-47 81z"/></svg>
