<svg xmlns="http://www.w3.org/2000/svg" width="512" height="512"><path d="M455 0H57C27 0 0 24 0 57v398c0 33 27 57 57 57h398c39-1 56-30 57-57V57c-1-27-18-56-57-57zM156 415c-4 30-23 49-57 50-26 1-48-10-61-36l32-19s8 15 17 18c5 2 15 2 22-2 6-4 8-14 8-14V270h39v145zm128 43c-31 14-87 8-106-34l32-18c16 30 56 30 64 10 8-19-15-26-45-39-12-7-32-17-38-43-5-19-1-48 29-61 42-15 74 4 83 27l-30 19c-5-8-14-16-25-16-10-1-19 4-20 18 1 19 27 19 58 39 22 14 26 25 28 45 2 14-1 40-30 53zm153 6-38-67-37 67h-39l55-100-51-95h39l33 62 34-62h38l-50 95 55 100h-39z"/></svg>
