<svg xmlns="http://www.w3.org/2000/svg" width="512" height="512"><path d="M75 354v23c-12 0-24-1-35-7-12-6-16-18-17-31l-1-47c0-15-6-22-22-25v-21l1-1c16-4 21-11 21-27l1-32 1-22c3-16 15-25 33-28l16-1h39v149c0 18 2 20 20 25l-4 25c-10-2-19-3-27-6-16-6-18-21-19-35V158l-20 2c-7 1-11 8-12 16v37l-1 17c-1 11-6 19-15 25v2c13 9 16 23 16 38v35c0 18 5 23 25 24zm89-80c-2 16 10 30 26 33s31 0 47-5l3 22c1 1-1 3-3 3-23 8-46 10-69 1-14-5-24-16-30-30-9-22-9-45 1-67 15-33 53-41 81-28 17 8 25 22 28 40l2 31h-86zm55-22c1-19-10-30-27-30-16 0-29 14-28 30h55zm218 125v-23l6-1c13-1 19-6 19-19v-36l2-18c1-10 6-18 15-24-16-11-17-27-17-43v-33c0-15-6-21-21-21l-4-1v-23c13 0 26 1 38 8 10 7 14 18 14 30l1 43 1 13c3 10 10 15 21 16v22c-10 1-18 6-21 16l-1 13-1 42c0 23-12 35-35 38l-17 1zm-11-116-31-13c-8-4-11-10-10-16 1-5 6-9 14-10 13-2 25 0 38 5l5-24c-15-4-30-8-45-5-8 1-16 3-23 6-24 12-24 49-3 61 8 5 16 8 23 11l19 10c5 3 7 8 5 14-1 5-5 8-10 8-8 1-15 2-23 1l-27-6-5 23c22 9 43 10 65 5 18-4 29-14 30-29 2-20-4-32-22-41zm-153 4c-21-12-21-49 3-61 11-6 23-8 35-7l33 5-5 25c-13-5-25-7-38-5-8 1-13 5-14 11s2 11 10 15c8 3 19 7 30 13 19 9 26 22 23 43-2 14-15 25-33 28-19 3-38 2-56-3-4-2-6-4-5-9l4-17 27 6c8 1 15 0 23-1 5 0 10-3 11-9s-1-11-6-13c-16-9-35-16-42-21z"/></svg>
