<svg xmlns="http://www.w3.org/2000/svg" width="455" height="512"><path d="m207 507-62-37c-10-6-5-7-2-9 12-4 15-5 28-12h5l48 29h6l187-109c2-1 3-3 3-5V148l-3-6L230 34h-6L37 143c-2 1-3 3-3 5v216c0 2 1 4 3 5l51 30c28 14 45-3 45-19V166c0-3 2-5 5-5h24c3 0 6 2 6 5v214c0 37-21 58-56 58-11 0-19 0-43-11l-49-29c-12-7-20-20-20-34V148c0-14 8-28 20-35L207 5c12-7 28-7 40 0l187 108c12 7 20 21 20 35v216c0 14-8 27-20 34L247 507c-16 8-29 5-40 0zm159-281h-25c-2 0-5-1-5-4-6-26-20-34-59-34-43 0-48 15-48 26 0 14 6 18 64 26 58 7 85 18 85 59 0 40-34 64-93 64-82 0-99-38-99-70 0-3 2-5 5-5h24c3 0 5 2 6 5 3 24 14 37 64 37 39 0 56-9 56-30 0-12-5-21-66-27-51-5-83-17-83-58 0-37 32-60 85-60 60 0 90 21 94 66 0 3-2 5-5 5z"/></svg>
