<svg xmlns="http://www.w3.org/2000/svg" width="439" height="512"><path d="M305 24H12C-4 24-4 0 12 0h293c16 0 16 24 0 24zM12 122c-16-1-16-24 0-24h171c16 0 16 23 0 24H12zm122-49c-17-1-16-24 0-24h244c16 0 16 23 0 24H134zm195 25c16 0 17 23 0 24h-97c-17-1-16-24 0-24h97zm49 24c-17-1-16-24 0-24h24c16 0 17 23 0 24h-24zM12 171c-16-1-16-25 0-25h49c16 1 16 24 0 25H12zm293 0c-17-1-16-25 0-25h122c16 1 16 24 0 25H305zm-195 0c-17-1-16-25 0-25h24c16 1 17 24 0 25h-24zM12 463c-16-1-16-24 0-24h49c16 0 16 23 0 24H12zm98 0c-17-1-16-24 0-24h24c16 0 17 23 0 24h-24zm195-244c-17 0-16-24 0-24h122c16 0 16 24 0 24H305zm-293 0c-16 0-16-24 0-24h122c16 0 17 24 0 24H12zm0 195c-16 0-16-24 0-24h122c16 0 17 24 0 24H12zm0 98c-16-1-16-24 0-24h122c16 0 17 23 0 24H12zm0-244c-16-1-16-24 0-24h25c16 0 16 23 0 24H12zm73 0c-16-1-16-24 0-24h74c15 0 16 23 0 24H85zm122 0c-16-1-16-24 0-24h195c16 0 17 23 0 24H207zm98 49c-17-1-16-24 0-24h73c16 0 16 23 0 24h-73zm-147 0c-16-1-15-24 0-24h98c16 0 17 23 0 24h-98zm-146 0c-16-1-16-24 0-24h98c16 0 16 23 0 24H12zm0 49c-16-1-16-25 0-25h25c16 1 16 24 0 25H12zm73 0c-16-1-16-25 0-25h220c16 1 16 24 0 25H85zM12 73c-16-1-16-24 0-24h73c16 0 17 23 0 24H12z"/></svg>
