<svg xmlns="http://www.w3.org/2000/svg" width="512" height="512"><path d="M240 60a15 15 0 1 1 30 0 15 15 0 0 1-30 0M58 198a15 15 0 1 1 31 0 15 15 0 0 1-31 0m364 1a15 15 0 1 1 30 0 15 15 0 0 1-30 0m-320 21c7-3 11-12 8-19l-7-15h26v120H76c-7-23-9-48-6-72l32-14zm112 3v-36h63c3 0 23 4 23 19 0 12-15 17-28 17h-58zm-87 190a15 15 0 1 1 31 0 15 15 0 0 1-31 0m226 0a15 15 0 1 1 30 0 15 15 0 0 1-30 0m4-34c-7-2-14 3-16 10l-8 36c-49 23-106 22-156-1l-8-35c-1-8-9-13-16-11l-32 7-16-19h153c2 0 3-1 3-2v-54c0-2-1-2-3-2h-44v-35h48c4 0 24 2 30 26 2 8 6 32 9 40 3 9 14 27 27 27h79l-17 20-33-7zm85-143c2 11 2 21 1 32h-19c-2 0-3 2-3 3v9c0 21-12 26-22 27s-21-4-22-10c-6-33-15-40-31-52 19-12 39-29 39-53 0-25-18-42-30-49a83 83 0 0 0-40-14H116c28-30 65-51 105-59l24 25c5 5 14 6 19 0l27-25c54 10 101 44 128 92l-18 40c-3 7 0 15 7 18l34 16zm45 0v-6l18-17c4-4 2-11-2-12l-24-9-2-6 15-21c3-4 0-11-5-12l-25-4-3-5 11-23c2-5-2-11-7-11l-26 1-4-5 6-24c1-5-4-10-9-9l-24 6-5-4 1-26c0-5-6-9-11-7l-23 11-5-3-4-25c-1-5-8-8-12-5l-21 15-6-2-9-24c-1-4-8-6-12-2l-17 18h-6L262 3c-2-4-10-4-12 0l-14 22h-6L213 7c-4-4-11-2-12 2l-9 24-6 2-21-15c-4-3-11 0-12 5l-4 25-5 3-23-11c-5-2-11 2-11 7l1 26-5 4-24-6c-5-1-10 4-9 9l6 24-4 5-26-1c-5 0-9 6-7 11l11 23-3 5-25 4c-5 1-8 8-5 12l15 21-2 6-24 9c-4 1-6 8-2 12l18 17v6L3 250c-4 2-4 10 0 12l22 14v6L7 299c-4 4-2 11 2 12l24 9 2 6-15 21c-3 4 0 11 5 12l25 4 3 5-11 23c-2 5 2 11 7 11l26-1 4 5-6 24c-1 5 4 10 9 9l24-6 5 4-1 26c0 5 6 9 11 7l23-11 5 3 4 25c1 5 8 8 12 5l21-15 6 2 9 24c1 4 8 6 12 2l17-18h6l14 22c2 4 10 4 12 0l14-22h6l17 18c4 4 11 2 12-2l9-24 6-2 21 15c4 3 11 0 12-5l4-25 5-3 23 11c5 2 11-2 11-7l-1-26 5-4 24 6c5 1 10-4 9-9l-6-24 4-5 26 1c5 0 9-6 7-11l-11-23 3-5 25-4c5-1 8-8 5-12l-15-21 2-6 24-9c4-1 6-8 2-12l-18-17v-6l22-14c4-2 4-10 0-12l-22-14z"/></svg>
