<svg xmlns="http://www.w3.org/2000/svg" width="512" height="512"><path d="m168 290-49 26c-28-27-54-41-70-62-20-26-13-61 30-96 95-72 188-75 210-47 21 26-15 83-75 103-37 13-73 13-91-8-2-3-6 0-5 3 12 36 67 34 109 24 77-19 135-118 64-156C188 28 8 138 0 216c-4 44 53 75 101 111-38 20-65 38-75 54-9 15-13 31-5 48 13 30 60 16 77 4 28-20 49-58 31-104l28-16v1l-1 5c-9 28-6 55 7 74 6 9 19 10 26 3 8-6 14-23 23-43-2 21 0 39 12 40 8 1 15-6 21-16 16-27 31-60 46-95 3 15 7 28 14 40 1 3 1 5-1 8l-27 34c-14 15-9 23 9 22 25-2 55-19 48-52-3-12-6-14-3-17 10-15 20-34 29-50 2 14 7 28 14 40-18 16-30 33-30 52 1 7 7 12 15 10 19-3 41-20 44-34 2-8 1-16-3-28 79-26 126 33 88 59l-4 3c-1 1-1 3 1 3 4 0 7-2 10-3 37-23 10-84-50-85-18 0-35 3-51 11-10-17-14-33-11-46l5-18c1-3 1-6-6-7s-14 0-21 2c-5 1-4 4-6 9-4 21-19 44-33 69-5-9-10-20-9-34l6-24c1-3 0-5-6-7-10-1-19 1-24 3-3 2-4 14-8 24-18 39-37 86-45 97-5-3 4-35 12-65 2-8-8-14-17-8 8-44-30-41-60-3l-3 3m-55 73c-1 18-9 33-23 45-35 28-55 10-37-21 7-15 32-31 58-47 2 8 3 15 2 23zm65 5c-10-24 4-69 27-86 8-5 12-3 11 2l-4 17-21 57c-6 13-11 16-13 10zm108 5 26-30c1 11-18 33-26 30zm75-17c-2 0-2-1-2-5 4-12 10-22 20-31 5 13 0 29-18 36z"/></svg>
