<svg xmlns="http://www.w3.org/2000/svg" width="525" height="512"><path d="M266 501c58-205 56-206 97-353l10 6c6 3 10 1 10-6V79l22-78h45l75 69-49 43 37 40-244 348c-2 2-3 1-3 0z"/><path d="M293 58c2 0 4 2 4 3v36c0 1-2 3-4 3h-61c-2 0-4-2-4-3V61c0-1 2-3 4-3h61zm74-39-66 38 1 4v36l-2 5 67 38c5 3 9 1 9-4V24c0-6-4-8-9-5zM223 97V61l1-4-66-38c-5-3-8-1-8 4v113c0 5 3 7 8 4l67-38-2-5z"/><path d="M257 501h2l-97-353-10 6c-6 3-10 1-10-6V79L120 1H75L0 70l49 43-37 40 245 348zM279 156a18 18 0 1 1-36 0 18 18 0 0 1 36 0zM279 264a18 18 0 1 1-36 0 18 18 0 0 1 36 0zM279 372a18 18 0 1 1-36 0 18 18 0 0 1 36 0z"/></svg>
