<svg xmlns="http://www.w3.org/2000/svg" width="512" height="512"><path d="M0 256c0-41 34-75 75-75A75 75 0 0 1 181 75a75 75 0 0 1 150 0 75 75 0 0 1 106 106c41 0 75 34 75 75v256H0V256zm283 17-27 134-28-134h-39l47 229h39l47-229h-39zm134 67h39a67 67 0 0 0-134 0v95a67 67 0 0 0 134 0v-67h-67v39h28v28c0 35-53 38-55 0v-95c1-36 52-38 55 0zm-315 20c-5-5-8-12-8-20 2-36 53-37 56 0h39a67 67 0 1 0-67 67c37 2 36 54 0 55-15 0-28-12-28-27H55a67 67 0 1 0 67-67c-8 0-15-3-20-8zm306-133h-83l59-58c14 0 27-7 35-20 16-27-4-61-35-62-23 0-40 20-41 41l-58 59v-83a41 41 0 1 0-58 0v83l-58-59a41 41 0 1 0-41 41l59 58h-83a41 41 0 0 0-70 29h444c-2-41-47-51-70-29z"/></svg>
